<svg xmlns="http://www.w3.org/2000/svg" viewBox="0 0 1003.45 437.03"><defs><style>.cls-1,.cls-2{isolation:isolate;}.cls-2,.cls-4,.cls-5{fill:#2988d7;}.cls-2{opacity:0.3;}.cls-3{fill:#205fa3;}.cls-5{stroke:#205fa3;stroke-miterlimit:10;stroke-width:2.6px;}.cls-6{fill:#242638;}.cls-7{fill:#111556;}.cls-8{fill:#111;}.cls-9{fill:#ffe1bd;}.cls-10{fill:#f9b253;}.cls-11{fill:#f29127;}.cls-12{fill:#3f3d56;}.cls-13{opacity:0.2;}.cls-14{fill:#161616;}.cls-15{fill:#393d63;}.cls-16{fill:#877f7d;opacity:0.5;mix-blend-mode:multiply;}.cls-17{fill:#ffbba6;}.cls-18{fill:#282828;}.cls-19{fill:#fac4a0;}.cls-20{fill:#7c7c7c;}.cls-21{fill:#fdfefc;}.cls-22{fill:#222c57;}.cls-23{fill:#363636;}.cls-24{fill:#d7d8d8;}.cls-25,.cls-26{fill:#fab81f;}.cls-25{fill-rule:evenodd;}.cls-27{fill:#303030;}.cls-28{fill:#eea886;}.cls-29{fill:#e8e8e8;}.cls-30{fill:#3a3f47;}.cls-31{fill:#a77860;}.cls-32{fill:#b0b0b0;}.cls-33{fill:#c4c4c4;}.cls-34{fill:#444;}</style></defs><g class="cls-1"><g id="Calque_2" data-name="Calque 2"><g id="Calque_70" data-name="Calque 70"><ellipse class="cls-2" cx="522.67" cy="416.96" rx="480.78" ry="20.07"/><path class="cls-3" d="M208.24,146.6A99.42,99.42,0,0,0,205,116.52l23.36-21.39-13.86-25.3L185.62,79c-.48-.57-.89-1.18-1.38-1.74a93.28,93.28,0,0,0-23.08-19.1L164,27.58l-26.81-8.66L122.21,45.86a89,89,0,0,0-31,3.1L72.76,26.69l-24.64,14,7.76,27.79c-.54.48-1.12.89-1.65,1.39A93,93,0,0,0,36,93.73L6.43,93.36,0,121.68l24.69,12a99.49,99.49,0,0,0,3.53,33L5.78,188.36,20,213.46l28-9.68c.22.26.4.54.63.8a93.75,93.75,0,0,0,22.65,18.87L71,257.1l27.36,6.55L110.72,236a88.8,88.8,0,0,0,31.48-3.29l21,23,24.11-14.91L178,212.5c.2-.18.41-.33.61-.51a92.92,92.92,0,0,0,18.72-24.83l29.31,2.35,7.89-27.93ZM160,190c-25.81,24.23-66.18,21.79-90-5.44s-22.18-69.08,3.63-93.31,66.19-21.79,90,5.44S185.81,165.74,160,190Z"/><path class="cls-3" d="M295.3,95a25.78,25.78,0,0,0-.85-7.86l6.1-5.59L296.93,75l-7.54,2.39c-.12-.15-.23-.31-.36-.46a24.44,24.44,0,0,0-6-5l.73-8-7-2.26-3.9,7a23.16,23.16,0,0,0-8.1.81l-4.81-5.82-6.44,3.65,2,7.25-.43.37a24.43,24.43,0,0,0-4.77,6.24l-7.71-.1-1.68,7.4,6.44,3.13a26,26,0,0,0,.93,8.63l-5.86,5.65,3.71,6.56,7.29-2.53.17.21a24.46,24.46,0,0,0,5.91,4.92l-.06,8.79,7.14,1.71,3.24-7.22a23.58,23.58,0,0,0,8.22-.86l5.49,6,6.3-3.9-2.45-7.38.16-.14a24.37,24.37,0,0,0,4.89-6.48l7.66.61,2.06-7.29Zm-12.6,11.32a16.26,16.26,0,0,1-23.5-1.42,17.71,17.71,0,0,1,.94-24.37A16.28,16.28,0,0,1,283.65,82,17.71,17.71,0,0,1,282.7,106.35Z"/><path class="cls-4" d="M223.05,25.24a19.67,19.67,0,0,0-.65-5.95L227,15.06l-2.74-5-5.7,1.81c-.1-.11-.18-.23-.28-.34a18.48,18.48,0,0,0-4.56-3.78l.55-6L209,0l-3,5.33a17.41,17.41,0,0,0-6.13.61l-3.64-4.41L191.4,4.29l1.53,5.5-.33.27a18.37,18.37,0,0,0-3.6,4.73l-5.85-.08-1.27,5.6,4.88,2.37a19.86,19.86,0,0,0,.7,6.54L183,33.49l2.8,5,5.53-1.91.12.16A18.54,18.54,0,0,0,196,40.43l-.05,6.65,5.41,1.29,2.45-5.47a17.47,17.47,0,0,0,6.22-.65l4.15,4.55,4.77-2.94-1.85-5.59.12-.11a18.35,18.35,0,0,0,3.7-4.9l5.79.46,1.56-5.52Zm-9.54,8.57a12.31,12.31,0,0,1-17.79-1.07,13.4,13.4,0,0,1,.72-18.45,12.31,12.31,0,0,1,17.79,1.08A13.4,13.4,0,0,1,213.51,33.81Z"/><path class="cls-5" d="M142.7,195.78h.51l23.28-92.11H198V227.85H174.09V149.64l-.52-.08-22.43,78.29H135l-22.26-77.7-.51.09v77.61h-24V103.67h31.3Z"/><path class="cls-5" d="M273.27,201h-31l-7,26.87H210.16l35.22-124.18h24.91l35.22,124.18H280.35Zm-26.09-18.93h21.15L258,142.65h-.51Z"/><path class="cls-5" d="M395.92,189.3l.17.51q.35,20-10.19,29.9t-30.06,9.93q-20.05,0-31.82-11.81t-11.77-33.56V147.42q0-21.66,11.39-33.6t30.75-11.94q20.37,0,31.3,9.89t10.57,29.94l-.17.51H372.72q0-11.94-4.22-16.71t-14.11-4.78q-9,0-13.57,6.52t-4.52,20v37q0,13.56,4.87,20.08t14.67,6.53q9,0,12.87-4.74t3.93-16.84Z"/><path class="cls-5" d="M499.2,227.85h-24V176.08h-40v51.77H411.19V103.67h24.05v53.65h40V103.67h24Z"/><path class="cls-5" d="M543.72,227.85h-24V103.67h24Z"/><path class="cls-5" d="M652.3,227.85h-24l-39.41-79.23-.51.08v79.15H564.28V103.67h24.05L627.73,183l.52-.09V103.67h24Z"/><path class="cls-5" d="M733.41,173H695.46v36.08h45.45v18.76H671.4V103.67h69.34v18.85H695.46v31.73h37.95Z"/><path class="cls-5" d="M117.71,389.31h55.46v22.47H88.9V263h28.81Z"/><path class="cls-5" d="M264.7,346.09H219.25v43.22H273.7v22.47H190.44V263h83.05v22.58H219.25v38H264.7Z"/><path class="cls-5" d="M358,379.6H320.79l-8.38,32.18h-30L324.56,263h29.83l42.19,148.74H366.45Zm-31.26-22.68h25.34l-12.37-47.19h-.61Z"/><path class="cls-5" d="M437.35,352.12v59.66H408.54V263.15h44.54q22.16,0,34.88,11.54t12.72,32.18a36.68,36.68,0,0,1-5.36,20,37.4,37.4,0,0,1-15.48,13.48q11.64,3.88,16.75,12.88t5.11,22.47v10.83a64.16,64.16,0,0,0,1.43,13.07q1.44,6.86,5.11,10v2.15H478.41q-3.57-3.27-4.54-10.67a113.06,113.06,0,0,1-1-14.77V375.92q0-11.34-4.7-17.57t-13.49-6.23Zm0-22.47h15.52q9.3,0,14.15-5.57t4.85-15.78q0-10.43-4.8-16.55t-14-6.13H437.35Z"/><path class="cls-5" d="M629.39,411.78h-28.8l-47.2-94.9-.61.1v94.8H524V263h28.81l47.19,95,.62-.1V263h28.8Z"/><path class="cls-5" d="M682.62,411.78H653.91V263h28.71Z"/><path class="cls-5" d="M812.66,411.78H783.85l-47.2-94.9-.61.1v94.8h-28.8V263H736l47.2,95,.61-.1V263h28.81Z"/><path class="cls-5" d="M935.14,392.17q-6.33,8.88-18.34,15.32t-31,6.44q-24.1,0-38.67-14.05T832.58,360V314.84q0-25.75,14.15-39.84t37.43-14.1q24.32,0,36.68,11.49t11.95,32.74l-.2.61H905.52q0-11.64-5.11-16.95T885,283.48q-11.13,0-17.36,7.76t-6.24,23.39V360q0,15.93,6.34,23.7t18.08,7.76q8.37,0,13.18-2a17.64,17.64,0,0,0,7.35-5.26v-30H883.65V334.24h51.49Z"/><rect class="cls-6" x="687.19" y="349.59" width="34.88" height="3.04" transform="translate(1409.26 702.23) rotate(180)"/><rect class="cls-6" x="688.76" y="352.03" width="1.83" height="62.82"/><rect class="cls-6" x="705.72" y="348.24" width="1.83" height="70.69" transform="translate(-97.35 374.28) rotate(-27.83)"/><rect class="cls-6" x="735.99" y="348.24" width="1.83" height="70.69" transform="translate(-93.84 388.41) rotate(-27.83)"/><rect class="cls-6" x="718.73" y="352.03" width="1.83" height="62.82"/><rect class="cls-6" x="689.98" y="367.08" width="38.63" height="1.83"/><rect class="cls-6" x="689.98" y="387.16" width="49.43" height="1.83"/><rect class="cls-6" x="689.98" y="405.41" width="58.86" height="1.83"/><path class="cls-7" d="M688.45,266.5h.23c0-.15,0-.3.05-.45v0a5.46,5.46,0,0,1,10.86,1l.86,0c0-.08,0-.16,0-.24v-.12a5.47,5.47,0,0,1,10.9.89h.32a33.13,33.13,0,0,1-.56,11.67c.07,2.43.21,4.89.34,7.34.41,6.46,1,13,1.7,19.47l.57,4.9.55,5c.33,3.32.63,6.64.86,10s.4,6.67.46,10c0,1.68,0,3.36,0,5.05a34.79,34.79,0,0,1-.46,5.13,1.09,1.09,0,0,1-1,.91,1.1,1.1,0,0,1-1.16-1V346a75.49,75.49,0,0,0-1.41-9.59c-.62-3.22-1.3-6.43-2-9.64s-1.42-6.42-2.16-9.63l-1.11-4.8-.57-2.39-.56-2.48c-1.44-6.54-2.66-13.12-3.58-19.81-.26-2-.51-4.08-.71-6.13-.61,0-1.22.07-1.84.09,0,1.57.11,3.16.2,4.74.38,6.47.93,13,1.65,19.52s1.4,13.31,1.8,20c.19,3.35.34,6.7.36,10.07,0,1.69,0,3.38-.09,5.08a39.44,39.44,0,0,1-.47,5.14,1.12,1.12,0,0,1-2.22-.1V346a82,82,0,0,0-1.35-9.67c-.58-3.24-1.24-6.48-1.9-9.71s-1.34-6.47-2-9.71L693.9,312l-1.09-4.84c-1.43-6.6-2.68-13.22-3.5-20-.41-3.38-.77-6.78-.94-10.27,0-.55,0-1.1,0-1.65A45.76,45.76,0,0,1,688.45,266.5Z"/><path class="cls-8" d="M700.21,345.17a20.43,20.43,0,0,0,2.34-.41.75.75,0,0,1,.9.64c.23,1.46.63,4.41.14,5.11s-3.46.44-4,0c0,0-1.86.75-6.86-.08-4.64-.78,3.63-2.17,5.42-2.7a2,2,0,0,0,1.5-1.93A.63.63,0,0,1,700.21,345.17Z"/><path class="cls-8" d="M712.79,345.17a20.62,20.62,0,0,0,2.35-.41.74.74,0,0,1,.89.64,14.33,14.33,0,0,1,.16,4.68c-.22.64-1.68.91-3.25.35a8.79,8.79,0,0,0-3.25-.92c-4.14-.49-.54-1.42,1.57-2,1.32-.34,1-1.2,1-1.75A.63.63,0,0,1,712.79,345.17Z"/><path class="cls-9" d="M715.61,247.08s1.72,10.49-1.19,10.35a28,28,0,0,1-5.58-1.1v-9.25l.53-2.52,3.28-.51Z"/><path class="cls-9" d="M647.5,227a6,6,0,0,1-4.42-1.82,1.83,1.83,0,0,1-.32-1.22c-.42-.49-1.15-2.22.13-1.87-1.31-.84-1.63-2.15-2-3.61-.11-.48.47-.64,1.07.33a5.56,5.56,0,0,0,3.81,2.45c.11-.27-.26-.35-.53-.92s-.1-1.07.19-1.17.72.63.88.77l1.93,1.58a3.92,3.92,0,0,1,1.39,1.85c.05.14.37,1.59-.26,1.39"/><path class="cls-9" d="M689.51,240.05c-6.52,0-18.18-1-19.78-1.3C663.42,237.6,647.37,227,647.37,227a3,3,0,0,1,2.18-3.23c4.07,3.2,18.7,7.17,20.64,8.31,1.26.74,21.77-.25,21.77-.25"/><path class="cls-10" d="M712.57,232.8A88.24,88.24,0,0,1,716.46,247l-7.09,1.12V238"/><path class="cls-10" d="M688.82,252.82a63.88,63.88,0,0,1-.34,10.27,21.13,21.13,0,0,0-.34,2.71c0,.41-.15,3.28.18,3.57a7.63,7.63,0,0,0,3.75,1.44c5.14.92,13.26.31,15.55.75S712,271.27,712,270c0-.91-.47-3.92-.55-5.7-.17-3.89,0-12.73.69-16.68,1.51-8.28.67-12.28-.39-21.54l-14.42-5.32c-1.2.2-.68,3.84-1.88,4-.89.14-5.85,4.8-7.26,10.31a21.85,21.85,0,0,0-1.81,3.59,6.24,6.24,0,0,0,0,4.89A34.69,34.69,0,0,1,688.82,252.82Z"/><path class="cls-11" d="M688.79,252.82a63.88,63.88,0,0,1-.34,10.27,21.09,21.09,0,0,0-.33,2.71,1.55,1.55,0,0,0,.53,1.06v0c-.46-1,.64-6.12,1.12-9a32.47,32.47,0,0,0-.67-11.92c-1-3.51-1.4-5.18-1.4-5.18s-.79-1.19-1.34-2.09a6.28,6.28,0,0,0,0,4.89A34.3,34.3,0,0,1,688.79,252.82Z"/><path class="cls-10" d="M690.44,228.37a6.76,6.76,0,0,0-4.57.79c-3,1.76-9.24,2.8-9.24,2.8s-.62,5.6.15,8.34c0,0,2.07-.32,8.22.34,6.36.69,15,6.44,15,6.44"/><path class="cls-9" d="M691.1,207.29c1.26-2.41,3.26-5.83,8-5.35S708,205.42,708,209s-2.48,7.9-3.42,10.38a16.39,16.39,0,0,0-.54,6.16l-10.59-.38s.28-3.24-.37-4.46a16.71,16.71,0,0,0-3.43-3.3c-.72-.58-1.3-1.79-.87-3.69a28,28,0,0,1,1.29-4.89C690.32,208.22,690.82,207.82,691.1,207.29Z"/><path class="cls-12" d="M691.29,226.58c.64-.76,1.63-1.14,2.2-2a4.43,4.43,0,0,0,.75-2.87,5.1,5.1,0,0,0-.63-1.62c-1.15-2.32-1.23-3.83.42-5.7a6.46,6.46,0,0,0,1.34-2c.25-.7.45-1.46-.23-1.88a.9.9,0,0,0-1.22,0c-.26.24-1,2.45-1.15.93s-.68-1.82.6-4.44c.15-.31.86-1.53.75-1.8a3.56,3.56,0,0,0-2.88,1.79c-.73-.82,1.42-6.84,8-6.68a11.2,11.2,0,0,1,4.88.91c1.49.75,3.14,2.08,3.05,3.42,2.34.45,2.66,2.83,2.85,3.72a12,12,0,0,1,.14,3.87c-.25,1.9-1,3.71-1.33,5.59a8.22,8.22,0,0,0,.21,4.69c.58,1.4,2,2.16,2.67,3.52a6.16,6.16,0,0,1-.07,5.62c-.92,1.73-2.06,2.86-1.76,5a6.79,6.79,0,0,1-2.24,6.48,7,7,0,0,1-5,1.37,11.79,11.79,0,0,1-4.14-1.31c-2.47-1.34-4.67-2.21-6.27-5.77-.9-2,.42-2.3-.38-4.37-.45-1.15-1.42-2.11-1.54-3.4a4.34,4.34,0,0,1,.94-3Z"/><g class="cls-13"><path d="M162,250.92c-.26-.57-.5-1.19-.73-1.81C161.54,249.73,161.78,250.34,162,250.92Z"/></g><path class="cls-14" d="M175.58,415.74c-1.2-1.87-7.15-.54-10.31-2.33-2.47-1.41-2.33-5.25-2.33-5.25L158,407.4a55.26,55.26,0,0,0-1.45,9.42,2.14,2.14,0,0,0,1.8,2.12,69,69,0,0,0,17.79.51A4.53,4.53,0,0,0,175.58,415.74Z"/><path class="cls-14" d="M144.74,413.1c-1.16-1.81-6.28-1.74-9.33-3.47-2.41-1.37-1.7-5-1.7-5L129,403.9s-2,5.35-2,9a2.07,2.07,0,0,0,1.75,2.05,150.47,150.47,0,0,0,16.58,1.71A4.4,4.4,0,0,0,144.74,413.1Z"/><path class="cls-15" d="M169.43,367.3l-3.25-50.18-28.07-.43a39.46,39.46,0,0,0-3.28,12.48c-.37,6.3.69,26.88.69,26.89l-.45,6.88.12-.66-7.42,42.93,6,1.44L146.63,365l.12-.66,4.14-27.78,6.81,31.85-.47,40.89,6.17.55,6-41.51,0-.23Z"/><path class="cls-16" d="M166.18,317.12l-27.89-.43h-.18a42,42,0,0,0-2.78,8.73c5,.3,14.39.48,19,3.44,5.48,3.55,10.82,12.14,13.78,17.82Z"/><path class="cls-16" d="M145.44,342c-2,4-.36,17-1.78,19.11s-4.25.51-2.36,2.15-3.17,29.37-3.17,29.37h0l8.5-27.63.12-.66,4.14-27.78A11.9,11.9,0,0,0,145.44,342Z"/><path class="cls-17" d="M161.8,234c-2.3-3.59-9-4.25-13.88-.68s-1,13-1,13c3.83,8.36,13.3,8.86,15.63,5.24S164.1,237.57,161.8,234Z"/><path class="cls-17" d="M157.42,251.39s-.81,6.9,1.63,10.89a29.93,29.93,0,0,1-7-.13c-3-.54,1-12.93,1-12.93S156.21,249.23,157.42,251.39Z"/><path class="cls-14" d="M159.38,226.88a29.24,29.24,0,0,0-12.06,2.3,7.81,7.81,0,0,0-4.56,8.11,33.25,33.25,0,0,0,4.73,13.65c2.73,3.92,10.45,5,11.4,2.76s-.48-4.69-2-5.95.29-4.5,1.47-3.55,1.78,4.7,2.87,3.63-3.86-7.91-.79-8.26c2.24-.25,4-2,5.13-4.14a13.48,13.48,0,0,0,1.53-4.85C167.54,226.39,162.1,227,159.38,226.88Z"/><path class="cls-10" d="M149.23,256.81a6.47,6.47,0,0,1,4.47-.63,42.38,42.38,0,0,1,5.43,1.79l1.25,3.68a34.65,34.65,0,0,0-7.29-1C150.5,260.76,147.73,260.8,149.23,256.81Z"/><path class="cls-17" d="M124,311.9s1.68,6.29,2.53,7.62-.93.85-1.93-.85-1.2-.64-1.12-.05a36.5,36.5,0,0,1,.54,5.16c-.13.85-.63-.09-1-1.47s-.66-2.23-.66-2.23,0,3.69-.81,4-2.57-2.22-3.21-3.82,2.45-8.59,2.45-8.59Z"/><path class="cls-17" d="M211.05,249.28s4.16-5.51,6-7.38,5.26-4,5.73-3.47-2.37,2.52-2.87,3.34,1.41,1.4,2.21,3.14a3.68,3.68,0,0,1-1.81,4.56c-1.44.63-3.4.41-4.19,1.11s-2.3,1.84-2.3,1.84Z"/><path class="cls-10" d="M211.74,248c-4,3.53-7.59,7.45-11.72,10.82-2.06,1.69-4.14,3.35-6.22,4.92-1,.78-2.09,1.54-3.1,2.22a16.15,16.15,0,0,1-1.44.9,4.08,4.08,0,0,1-.59.3.58.58,0,0,0-.19,0c-.23-.13-1.28,0-2.44-.11s-2.37-.19-3.59-.32c-2.48-.28-5.06-.71-7.63-1.15-1.63-.29-17-6.17-20.07-6.7a9.71,9.71,0,0,0-2.22-.13c-6.44.36-10.76,1.68-13.32,4.07a7.06,7.06,0,0,0-1.43,1.36c-1.36,1.76-2.7,3.53-4.05,5.33a141.07,141.07,0,0,0-8.6,12.68,26.82,26.82,0,0,0-3.19,8.05,66,66,0,0,0-1.22,7.68c-.5,5-.7,9.94-.7,14.93l4.55.39c.93-4.66,2.07-9.37,3.44-13.85a56.07,56.07,0,0,1,2.36-6.41,16.87,16.87,0,0,1,3.21-4.92c.87-1,1.8-1.94,2.76-2.92-.31,12.25-1.2,27.41-1.51,37,13.43,5.07,32.45,1.32,32.45,1.32s.21-22.44,2.4-30.73a92.31,92.31,0,0,0,2.45-13.14l1.89-.07c2.8-.15,5.59-.32,8.48-.64,1.46-.17,2.88-.32,4.46-.62a22.39,22.39,0,0,0,5.46-1.54,18,18,0,0,0,1.57-.93,11.87,11.87,0,0,0,1.07-.84,23.13,23.13,0,0,0,1.73-1.58c1.07-1,2-2,3-3.07,1.89-2.05,3.68-4.11,5.46-6.18,3.53-4.15,7-8.34,10.34-12.58Z"/><path class="cls-14" d="M154.79,237.3c-3.14.79-1.32,7.53-5.33,7.56-2.26,0-3.81.06-5.05-.42a27.23,27.23,0,0,0,3.08,6.5c2.73,3.92,10.45,5,11.4,2.76s-.48-4.69-2-5.95.29-4.5,1.47-3.55,1.78,4.7,2.87,3.63-3.86-7.91-.79-8.26c2.24-.25,4-2,5.13-4.14a13.48,13.48,0,0,0,1.53-4.85S165,237.06,154.79,237.3Z"/><path class="cls-16" d="M191.63,273.12c-3.65,1-13.1,2.23-22.16,1.42-5,1.22-4.79,10.75-5.51,23.33s-1.39,12.67-4.91,13.84-3.17,3.19,0,3.6-3.29,8.68-24.16,5.06q0,.92-.06,1.77c13.43,5.07,32.45,1.32,32.45,1.32s.21-22.44,2.4-30.73a92.31,92.31,0,0,0,2.45-13.14l1.89-.07c2.8-.15,5.59-.32,8.48-.64,1.46-.17,2.88-.32,4.46-.62a22.39,22.39,0,0,0,5.46-1.54,18,18,0,0,0,1.57-.93,11.87,11.87,0,0,0,1.07-.84,23.13,23.13,0,0,0,1.73-1.58c1.07-1,2-2,3-3.07,1.89-2.05,3.68-4.11,5.46-6.18,1.12-1.32,2.21-2.65,3.31-4C207.66,260.94,195.16,272.15,191.63,273.12Z"/><path class="cls-16" d="M127.77,288.37c-.83,2.88-2.09,19.75-2.09,19.75l.06-.1c.68-2.91,1.41-5.81,2.27-8.61a56.07,56.07,0,0,1,2.36-6.41,16.87,16.87,0,0,1,3.21-4.92c.87-1,1.8-1.94,2.76-2.92,0,0,1.63-10.86,1.79-12.14S128.6,285.49,127.77,288.37Z"/><path class="cls-18" d="M436.86,142.81s-1.09.14-1.3.58a32.4,32.4,0,0,0-.29,4.66,28.07,28.07,0,0,0,5.55,4.34c2.68,1.42,5,2,6,1.11s.39-2-1.81-3.87-4.34-6.82-4.34-6.82Z"/><path class="cls-18" d="M449.53,137.25s-1.08.14-1.29.57a32.63,32.63,0,0,0-.29,4.67,28,28,0,0,0,5.54,4.33c2.68,1.43,5,2.05,6,1.11s.39-2-1.81-3.87-4.34-6.82-4.34-6.81Z"/><path class="cls-15" d="M408.53,87.64c-.09,5.28.57,13.66,3.2,15.53,4,2.85,23.46,7.36,23.46,7.36l-.39,32.76s2.79,2.86,7.14,0c0,0,5.21-37.87,4.58-40.53s-22.09-9.44-22.09-9.44Z"/><path class="cls-15" d="M421.43,84.76c-.08,5.27.47,11.34,3.2,13,3,1.84,23.46,7.36,23.46,7.36l-.39,32.76s2.79,2.86,7.14,0c0,0,5.21-37.87,4.58-40.53S437.33,88,437.33,88Z"/><path class="cls-19" d="M448.73,77.15s3.26,2.39,2.7,4.23-4.91-2.45-4.91-2.45Z"/><path class="cls-20" d="M429.48,49.77c3.31.42,6.85,11.82,7,18.34l12.24,9a8.3,8.3,0,0,1-4.7,4L433,75.93Z"/><path class="cls-20" d="M414.12,51.65a30.66,30.66,0,0,0-7.9,4.75l2.31,33.73s4.83,3.66,14.71,1c8.05-2.18,10.17-5.69,10.17-5.69s.73-16.53,0-24.57-3.91-11.08-3.91-11.08a22.35,22.35,0,0,0-5.63-.32Z"/><path class="cls-18" d="M425.05,28.72a18.87,18.87,0,0,0-10.29.65c-5.08,2-2.11,9.46-.62,13s2.53,2.24,2.53,2.24L427.74,40s1.47-.48,1.26-5.26A6.39,6.39,0,0,0,425.05,28.72Z"/><path class="cls-19" d="M415.75,49.78,415.53,42A1.79,1.79,0,0,1,414,39.75c.32-2.14,2.25-.73,2.59-.1,0,0,.43-7.35,4.19-8.06s7.41.13,7.5,2,.22,8.52,0,11-2.08,3.47-5.51,3.37l.23,4s-1.72,1.31-6.53.09Z"/><path class="cls-21" d="M424.79,55.45a11.74,11.74,0,0,0,.58-3.37,4.82,4.82,0,0,0-1.67-3.15,2.39,2.39,0,0,0-.91-.13c-.19,2.93-1.12,3.38-1.12,3.38-2.6-.15-5.92-3.27-5.92-3.27s-.6.15-.72.48c0,0-.37.84-.91,2.26a11.27,11.27,0,0,0,2.69,3.25,7.9,7.9,0,0,0,2.9,1.56,4.28,4.28,0,0,0,3,.41C424.63,56.4,424.79,55.45,424.79,55.45Z"/><g class="cls-1"><path class="cls-22" d="M456.63,85.6,432.2,100.3a.29.29,0,0,0,.12-.27l24.43-14.7A.28.28,0,0,1,456.63,85.6Z"/><polygon class="cls-22" points="432.32 99.49 456.75 84.79 456.75 85.33 432.32 100.03 432.32 99.49"/><polygon class="cls-21" points="413.93 88.29 438.37 73.59 456.6 84.49 432.17 99.19 413.93 88.29"/><path class="cls-23" d="M451.22,83.78a.43.43,0,0,1,0,.81l-18.35,11a1.48,1.48,0,0,1-1.36,0l-6.95-4.15a.44.44,0,0,1,0-.81l18.35-11a1.41,1.41,0,0,1,1.34,0Z"/><path class="cls-23" d="M433.24,100l7.58-13.86,24.43-14.7-7.58,13.86a.16.16,0,0,1-.07.09l-24.44,14.7A.18.18,0,0,0,433.24,100Z"/><path class="cls-21" d="M440.24,84.42l.21.22a1.59,1.59,0,0,1,.37,1.54L433.24,100c-.29.64-1.11.37-1.33.24L414.76,90a2,2,0,0,1-.83-1.49v-.25l18.24,10.9Z"/><path class="cls-24" d="M440.24,84.42l24.43-14.7.21.22a1.55,1.55,0,0,1,.37,1.54l-24.43,14.7a1.59,1.59,0,0,0-.37-1.54Z"/></g><path class="cls-23" d="M435.06,81.89a.19.19,0,0,1,0,.35L429,85.89a.64.64,0,0,1-.6,0l-3-1.82c-.16-.09-.15-.25,0-.35l6.07-3.65a.6.6,0,0,1,.58,0Z"/><path class="cls-20" d="M406.22,56.4c-2.59,3.05-7.08,17.77-6.88,20.16s14.21,15,14.21,15l4-3.68-9.92-12.84s3.83-9.22,3.06-13.47A6.55,6.55,0,0,0,406.22,56.4Z"/><path class="cls-19" d="M417.56,87.92s5.86.71,6.36,1.17-.62,1.69-.62,1.69,2.36,3.11,3.11,4-3.38,1.1-5.66.71-5.13-.91-7.2-3.87Z"/><path class="cls-18" d="M414.15,30c.13-.39.28-.76.42-1.1.9-2.17,3.16-3,5.33-3,3.1,0,6.15,1.73,8.6,3.58a6.53,6.53,0,0,0,4.13,1.63,3.14,3.14,0,0,1-2.29,1.8,4,4,0,0,0,2.39,1.23l-1.55.77,1.48,1.64a12.81,12.81,0,0,0-2.64,0,17.82,17.82,0,0,1-3-.52,14,14,0,0,1-4.82-2.49c-.76,1-1.46,2.18-2.26,3.18-.3.38-2.77,2.19-2.77,2.41-.09,1.11.07,2.27,0,3.38a10.41,10.41,0,0,0-1.38-3.45,9.38,9.38,0,0,1-1.3-3.47,32.06,32.06,0,0,1-.68-3.75A6.58,6.58,0,0,1,414.15,30Z"/><path class="cls-25" d="M807.5,23.6a.68.68,0,0,1-1.36,0V19.67a.68.68,0,0,1,1.36,0V23.6Zm42.47,43a.68.68,0,1,1,0-1.36h3.93a.68.68,0,0,1,0,1.36Zm-5.6-21.4a.66.66,0,0,1-.92-.25.68.68,0,0,1,.24-.93l3.41-2a.66.66,0,0,1,.92.25.68.68,0,0,1-.24.93l-3.41,2ZM828.83,29.46a.68.68,0,0,1-.93.24.67.67,0,0,1-.25-.92l2-3.41a.68.68,0,0,1,.93-.24.67.67,0,0,1,.24.92l-2,3.41ZM764.51,66.07a.68.68,0,1,1,0,1.36h-3.92a.68.68,0,1,1,0-1.36Zm5.86-21.33a.68.68,0,0,1-.68,1.18l-3.4-2a.67.67,0,0,1,.67-1.17l3.41,2ZM786.1,29.2a.67.67,0,0,1-1.17.67l-2-3.4a.68.68,0,0,1,1.18-.67Z"/><path class="cls-25" d="M801.68,121.85H791.21a2.46,2.46,0,1,0,0,4.91h32.07a2.46,2.46,0,0,0,0-4.91h-21.6Zm-25.5-36.33c.1.16.66,1,1.49,2.32h0l0,0c2.83,4.52,8.66,14.31,9.55,19.78a47,47,0,0,1,.51,5.94c.15,3.67.26,6.17,3,6.9h0a3.59,3.59,0,0,1,.47,0H801v-23c0-.34,0-.66,0-1-.55-.13-1.07-.27-1.57-.43a12.54,12.54,0,0,1-4.47-2.33,4.4,4.4,0,0,1-1.75-3.23,3,3,0,0,1,.15-.94,2.94,2.94,0,0,1,1.94-1.94,3.73,3.73,0,0,1,2.15,0,5.11,5.11,0,0,1,2.17,1.27c1.27,1.21,2.34,3.31,2.67,6.51a29.11,29.11,0,0,0,10,0c.32-3.2,1.39-5.3,2.67-6.51a5,5,0,0,1,2.16-1.27,3.73,3.73,0,0,1,2.15,0,2.94,2.94,0,0,1,1.94,1.94,3,3,0,0,1,.15.94,4.36,4.36,0,0,1-1.75,3.23,12.54,12.54,0,0,1-4.47,2.33c-.5.16-1,.3-1.57.43,0,.31,0,.63,0,1v23h9.79a3.55,3.55,0,0,1,.46,0h0c2.7-.73,2.81-3.23,3-6.9a47,47,0,0,1,.51-5.94c.89-5.47,6.72-15.26,9.55-19.78l0,0h0c.82-1.31,1.38-2.16,1.48-2.32a36,36,0,1,0-67.07-18.24,35.87,35.87,0,0,0,4.95,18.24Zm12.75,35.72c-2.27-1.32-2.38-4-2.53-7.58a47.91,47.91,0,0,0-.49-5.78c-.85-5.23-6.56-14.8-9.35-19.25h0a37.38,37.38,0,1,1,61.38,0h0c-2.79,4.44-8.49,14-9.35,19.25a47.91,47.91,0,0,0-.49,5.78c-.15,3.62-.26,6.26-2.53,7.58a3.67,3.67,0,0,1,.43.37,3.8,3.8,0,0,1,0,5.39,3.86,3.86,0,0,1-2,1.07,3.76,3.76,0,0,1,1,2.52,3.84,3.84,0,0,1-3.82,3.82h-.74a3.79,3.79,0,0,1,.9,2.46,3.82,3.82,0,0,1-3.82,3.82h-2A6.61,6.61,0,0,1,813,145a9.35,9.35,0,0,1-11.56,0,6.55,6.55,0,0,1-2.42-4.28h-2a3.82,3.82,0,0,1-2.93-6.28h-.73a3.82,3.82,0,0,1-2.87-6.34,3.83,3.83,0,0,1-2-1.07,3.78,3.78,0,0,1,0-5.39,2.93,2.93,0,0,1,.42-.37Zm11.48,19.45a5.3,5.3,0,0,0,1.92,3.24,8,8,0,0,0,9.83,0,5.29,5.29,0,0,0,1.91-3.24Zm-3.35-6.28a2.46,2.46,0,0,0,0,4.92h20.37a2.46,2.46,0,0,0,0-4.92Zm-3.66-1.36h27.69a2.46,2.46,0,0,0,0-4.92H793.4a2.44,2.44,0,0,0-1.74.72,2.45,2.45,0,0,0,0,3.47,2.45,2.45,0,0,0,1.74.73Zm18.73-12.57h-9.77v-23c0-.24,0-.47,0-.7a30.15,30.15,0,0,0,9.79,0c0,.23,0,.46,0,.7v23Zm3.71-30.64a3.77,3.77,0,0,1,1.57-.93,2.44,2.44,0,0,1,1.37,0A1.63,1.63,0,0,1,819.85,90a1.59,1.59,0,0,1,.08.53,3.1,3.1,0,0,1-1.27,2.21,11.32,11.32,0,0,1-4,2c-.33.11-.68.21-1,.3a8.63,8.63,0,0,1,2.21-5.24Zm-15,5.24c-.36-.09-.7-.19-1-.3a11.32,11.32,0,0,1-4-2,3.1,3.1,0,0,1-1.27-2.21,1.89,1.89,0,0,1,.08-.53,1.66,1.66,0,0,1,1.07-1.07,2.44,2.44,0,0,1,1.37,0,3.77,3.77,0,0,1,1.57.93A8.58,8.58,0,0,1,800.85,95.08Z"/><g id="Calque_2-2" data-name="Calque 2"><g id="Calque_1-2" data-name="Calque 1-2"><g id="Calque_2-2-2" data-name="Calque 2-2"><g id="Calque_1-2-2" data-name="Calque 1-2-2"><g id="g4334"><path id="path4362" class="cls-26" d="M822.16,49.06a66.68,66.68,0,0,0-7.48,8.2A43.19,43.19,0,0,0,809,67.42L807.21,72,804,68.13a26.84,26.84,0,0,0-2.17-2.35c-.79-.77-1.47-1.4-2-1.9s-1.37-1.19-2.4-2.06-1.83-1.57-2.39-2.1l2.9-4.91c.39.33,1.13,1,2.22,1.93L803,59.32q1.31,1.16,2.37,2.13a43.84,43.84,0,0,1,6.16-8.83q2.94-3.27,6.79-6.94a19.68,19.68,0,0,0-27.17,5,19.16,19.16,0,0,0,5,26.85,19.7,19.7,0,0,0,27.18-5A19.14,19.14,0,0,0,822.16,49.06Z"/></g></g></g></g></g><rect class="cls-3" x="733.75" y="162.83" width="119.98" height="3.22"/><rect class="cls-3" x="876.26" y="206.63" width="3.22" height="54.27"/><path class="cls-3" d="M944.56,156.94A16.07,16.07,0,0,0,931,132.25c-.48,0-1,0-1.48.07A14.48,14.48,0,0,0,902,138.69v8h-3.22V140.3h-3.21v6.43h-6.44V140.3h-3.22v6.43h-6.44V140.3h-3.22v6.43h-6.43V140.3h-3.22v6.43h-.67l-5.77,5.77v.67h-6.44v3.22h6.44v6.44h-6.44V166h6.44v6.44h-6.44v3.22h6.44v6.44h-6.44v3.22h6.44v6.43h-6.44V195h6.44v6.44h6.44v6.44h3.22v-6.44h6.43v6.44h3.22v-6.44h6.44v6.44h3.22v-6.44h6.44v6.44h3.21v-6.44H902v8.05a14.48,14.48,0,0,0,27.61,6.1l.07,0a17.76,17.76,0,0,0,14.17-17.35,17.46,17.46,0,0,0-1-5.91,20.9,20.9,0,0,0,1.73-35.38Zm-30.67,12.54c.09.2.17.4.25.61l.27.71,3.7,1.23v4.12l-3.7,1.23-.27.71c-.08.21-.16.41-.25.61l-.31.7,1.74,3.48-2.91,2.91-3.48-1.74-.7.31-.61.25-.71.27-1.23,3.69h-4.12l-1.23-3.69-.71-.27-.61-.25-.7-.31-3.48,1.74-2.91-2.91,1.74-3.48-.31-.7c-.09-.2-.17-.4-.25-.61l-.27-.71-3.69-1.23V172l3.69-1.23.27-.71c.08-.21.16-.41.25-.61l.31-.7-1.74-3.48,2.92-2.91,3.48,1.74.69-.31.61-.25.71-.27,1.23-3.69h4.12l1.24,3.7.71.27a6.44,6.44,0,0,1,.61.24l.69.31,3.48-1.74,2.91,2.92-1.74,3.48Zm-50.5,28.75V153.84l3.88-3.89H902v6.44h-2.77l-1.31,4-3.73-1.86L888,164.67l1.86,3.72-4,1.32v8.76l4,1.31L888,183.51l6.19,6.19,3.73-1.86,1.31,3.95H902v6.44Zm76.71-8.13-1.44.68.66,1.45A14.43,14.43,0,0,1,930.76,212a15.29,15.29,0,0,0,.22-2.45,14.5,14.5,0,0,0-1.94-7.25l-2.78,1.61a11.27,11.27,0,1,1-21,5.64V191.79H908l1.32-3.95L913,189.7l6.2-6.19-1.87-3.72,4-1.32v-8.76l-4-1.31,1.87-3.73-6.2-6.19-3.72,1.86-1.32-4h-2.77v-17.7a11.26,11.26,0,0,1,21.78-4l.47,1.24,1.3-.23a12.48,12.48,0,0,1,2.2-.2,12.88,12.88,0,1,1,0,25.75v3.22a16,16,0,0,0,11.57-4.94,17.65,17.65,0,0,1-2.45,30.6Zm-23.6-59.46v3.22a4.83,4.83,0,0,0-4.83,4.83h-3.22A8.06,8.06,0,0,1,916.5,130.64ZM931,141.9v-3.21a9.66,9.66,0,0,1,9.66,9.65h-3.22A6.45,6.45,0,0,0,931,141.9Zm5,29a8,8,0,1,1-11.37,11.38l2.27-2.27a5,5,0,0,0,6.83,0,4.84,4.84,0,0,0,0-6.83Zm-19.5,43.37v3.22a8.06,8.06,0,0,1-8-8h3.22A4.83,4.83,0,0,0,916.5,214.32ZM926.15,150a8.06,8.06,0,0,1-8,8.05v-3.22a4.83,4.83,0,0,0,0-9.66V141.9A8.06,8.06,0,0,1,926.15,150ZM903.62,166a8,8,0,1,0,8,8.05A8.06,8.06,0,0,0,903.62,166Zm0,12.88a4.83,4.83,0,1,1,4.83-4.83A4.84,4.84,0,0,1,903.62,178.92Zm-8-22.53h-16.1v-3.22h16.1Zm-25.75,35.4h25.75V195h-29V166h3.22Zm1.61-29a4.83,4.83,0,1,0-4.83-4.83A4.83,4.83,0,0,0,871.44,162.83Zm0-6.44a1.61,1.61,0,1,1-1.61,1.61A1.62,1.62,0,0,1,871.44,156.39Z"/><path class="cls-10" d="M446.87,362.28c0,37.64-1.07,45-10.52,53.44-3.7,3.3-10.51,10.17-30.15,13.58a147.26,147.26,0,0,1-21.42,2,70.38,70.38,0,0,1-9.53-.36,50.22,50.22,0,0,1-6.73-1.17c-21.59-5.41-23.2-23.91-13.76-39.47a90,90,0,0,1,8.35-11.44c4.63-5.45,9.58-10.3,14.07-14.82a100.52,100.52,0,0,0,10.6-11.9,29.88,29.88,0,0,0,2.85-4.85c.17-.39.35-.76.53-1.14.58-1.22,1.18-2.4,1.78-3.52,1.13-2.12,2.29-4,3.4-5.77.89-1.38,1.75-2.63,2.56-3.74a61,61,0,0,1,4.8-5.95s.25-.12.73-.32l.93-.37.47-.18.52-.19.51-.18.66-.21.41-.13.24-.08.1,0a42.41,42.41,0,0,1,10.83-1.9C431.51,323.09,446.89,329.21,446.87,362.28Z"/><path class="cls-27" d="M396.65,419a23.18,23.18,0,0,0,.72,3.63c.41,1.12,2.64,3.68,1.7,6.15-1,2.68-5.47.1-7.29-.72s-1.4-2.3-1.59-4.11-1.08-1.86-.76-3.14a15.46,15.46,0,0,1,2.32-3.72Z"/><path class="cls-28" d="M392.6,415.72s-1.14,1.6-1.1,1.64,4.88,3,5.21,2a10,10,0,0,0,.39-1.86Z"/><path class="cls-27" d="M376.17,420.73a18.5,18.5,0,0,0-2.81,3.29c-1.33,2-4.86,2.1-5,4.82s4.8,2.8,7.39,1.92,3-3.55,4.56-4.21,2.39-1.2,2.27-2.5a15.65,15.65,0,0,0-1-3.4A10.64,10.64,0,0,1,380,421,12.57,12.57,0,0,1,376.17,420.73Z"/><path class="cls-29" d="M394,347s-1,5.91-1.79,9.82h0a24.71,24.71,0,0,1-.8,3.24A45,45,0,0,1,387,365c-4,4.13-9.31,9.33-9.31,9.33l-2.07-3.93s4.71-5.52,7.9-9.2c1.48-1.7,2.63-3,2.84-3.2.67-.6,1.44-6.48,2.53-11.33a19.56,19.56,0,0,1,3.27-7.52Z"/><path class="cls-28" d="M387,365c-4,4.13-9.31,9.33-9.31,9.33l-2.07-3.93s4.71-5.52,7.9-9.2A6.67,6.67,0,0,1,387,365Z"/><path class="cls-28" d="M376.4,418.92l-.23,1.81a8.93,8.93,0,0,0,5.41-.08l.06-1.61Z"/><path class="cls-29" d="M413,373.48c.14.53-27.27,0-27.27,0s7.58-5.52,8.07-7-1.93-10.32-2.24-13.2c-.26-2.31-.89-12.61.63-14.19s7.3-3.37,7.3-3.37l8.34.31a13.44,13.44,0,0,1,2.35.74c1,.46,6.61,2.46,7.52,5.27S412,353.89,412,353.89s0,.41,0,1.07h0c0,.89-.06,2.24-.1,3.7,0,1.89-.08,4-.08,5.5A53.92,53.92,0,0,0,413,373.48Z"/><path class="cls-15" d="M413,373.48s3.73,5.48,3.78,9.22-6.62,16.26-7.63,18.06c-3,5.38-11.36,17-11.36,17s-1.43,0-5.91-1.77c0,0,5.54-15.35,6.24-16.94,3-6.76,4.64-11.55,3.64-12.71s-3.73-2.32-4.52-3-14.55,2.6-16,3c-3.74,1-2,7.46-1.21,10.38,1.38,4.87,2.59,22.47,2.59,22.47s-2.66,1.13-7.12.17c0,0-8.74-31.77-9-34.93S366,376,387.57,372.06Z"/><path class="cls-28" d="M401.73,317.62s-7.24-1.63-5.58,7.48,3.39,9.82,7.75,7.93,4-7.71,4.2-10.57S404,317.72,401.73,317.62Z"/><path class="cls-28" d="M399.81,338.07s3.21,3.39,8.27.31c0,0-1.13-7.36-.54-10.95s-6.6,5.56-6.6,5.56.16.39.17.87a9.63,9.63,0,0,1-.08,1.46C400.89,336.51,400.52,337.77,399.81,338.07Z"/><path class="cls-30" d="M407.74,327.13s-.18-2.87-1.23-3-1.21,1.06-1.21,1.06l-1.06.2s.34-2.51-.71-2.95-6.78,1.38-7.62.65-.44-5.84,1.08-6.54,5.71-2.26,8.78-.18c0,0,2.4-.27,2.75,1.66S408.39,325.69,407.74,327.13Z"/><path class="cls-31" d="M401,335.32c5.23-1.61,5.62-4.75,5.63-4.8-1.72,3-5.55,3.34-5.55,3.34A9.63,9.63,0,0,1,401,335.32Z"/><path class="cls-28" d="M410.22,336.82s-3.83,7.62-10,7.13-1-8.15-.77-8.22S405.78,334.15,410.22,336.82Z"/><path class="cls-29" d="M382.54,373.1s18.94,2.33,30.41.38L391,370.75S390.9,371.3,382.54,373.1Z"/><path class="cls-28" d="M396.7,369.88l-1.41.72s.32,2.24,1.1,2.92l1.58-.41S397.64,370.66,396.7,369.88Z"/><path class="cls-29" d="M418.61,365.29c-.28.33-4,1.83-8.21,3.45h0c-5.74,2.21-12.22,4.31-12.22,4.31l-1.48-3.17s6.79-3.68,11.37-6.27c2.17-1.22,3.85-2.2,4.08-2.42.74-.71.93-1.83.39-3.8s-1.79-11-1.93-12,.35-3.86,3-4a8,8,0,0,1,4,.6s.66.28,1.15,6.67S419.28,364.52,418.61,365.29Z"/><path class="cls-32" d="M412,355h0c0,.89-.06,2.24-.1,3.7a18.51,18.51,0,0,1-1.06-11.41C410.58,349,412,354.88,412,355Z"/><path class="cls-32" d="M392.17,356.86h0a24.71,24.71,0,0,1-.8,3.24,33.39,33.39,0,0,1-.09-9.69A54.48,54.48,0,0,0,392.17,356.86Z"/><path class="cls-28" d="M410.4,368.74h0C404.66,371,398,373.11,398,373.11l-1.27-3.23s6.79-3.68,11.37-6.27C408.07,363.61,409.74,364.42,410.4,368.74Z"/><polygon class="cls-33" points="396.3 373.3 369.38 372.9 382.97 379.8 396.3 373.3"/><polygon class="cls-34" points="382.97 379.8 396.3 374.64 396.3 373.3 381.92 378.49 382.97 379.8"/><path class="cls-28" d="M395.6,370.65s-1.68-.27-2.85-.54c-.9-.21-3.13.08-3.7.66s-2.38,4.6-2.72,4.84.17.82.77.53c0,0,.56,1.76,1.92,1.1s2.29-2.09,3-2.35,4.87-1.53,4.87-1.53S396.67,370.22,395.6,370.65Z"/><path class="cls-28" d="M389.46,370.51a11.8,11.8,0,0,0-1.36.75c-.28.23-1.43,1.09-1.7,1.29s.41.77,2.46-.11S389.46,370.51,389.46,370.51Z"/><polygon class="cls-34" points="382.97 379.8 374.97 357.95 349.16 358.37 356.79 378.51 382.97 379.8"/><path class="cls-26" d="M366.71,367.62c.78,1.57.55,3.29-.53,3.83s-2.6-.3-3.39-1.88-.55-3.28.53-3.83S365.92,366,366.71,367.62Z"/><path class="cls-28" d="M405.32,324c.1-.8,1.68-1.1,1.81.1s-.72,3.32-1.32,3.12S405.19,325.13,405.32,324Z"/></g></g></g></svg>